<svg width="32" height="32" viewBox="0 0 32 32" fill="none" xmlns="http://www.w3.org/2000/svg">
<path d="M16 0.825195C24.3809 0.825195 31.1748 7.61908 31.1748 16C31.1748 24.3809 24.3809 31.1748 16 31.1748C7.61908 31.1748 0.825195 24.3809 0.825195 16C0.825195 7.61908 7.61908 0.825195 16 0.825195Z" fill="#FED885" fill-opacity="0.5"/>
<path d="M16 0.825195C24.3809 0.825195 31.1748 7.61908 31.1748 16C31.1748 24.3809 24.3809 31.1748 16 31.1748C7.61908 31.1748 0.825195 24.3809 0.825195 16C0.825195 7.61908 7.61908 0.825195 16 0.825195Z" stroke="#B26060" stroke-width="1.65"/>
<path d="M16 0.825195C24.3809 0.825195 31.1748 7.61908 31.1748 16C31.1748 24.3809 24.3809 31.1748 16 31.1748C7.61908 31.1748 0.825195 24.3809 0.825195 16C0.825195 7.61908 7.61908 0.825195 16 0.825195Z" stroke="#F1A75D" stroke-width="1.65"/>
<path d="M16 18.7999C16.656 18.7999 17.2 18.2559 17.2 17.5999V9.5999C17.2 8.9439 16.656 8.3999 16 8.3999C15.344 8.3999 14.8 8.9439 14.8 9.5999V17.5999C14.8 18.2559 15.344 18.7999 16 18.7999Z" fill="#F1A75D"/>
<path d="M17.472 21.7916C17.392 21.5996 17.28 21.4236 17.136 21.2636C16.976 21.1196 16.8 21.0076 16.608 20.9276C16.224 20.7676 15.776 20.7676 15.392 20.9276C15.2 21.0076 15.024 21.1196 14.864 21.2636C14.72 21.4236 14.608 21.5996 14.528 21.7916C14.448 21.9836 14.4 22.1916 14.4 22.3996C14.4 22.6076 14.448 22.8156 14.528 23.0076C14.608 23.2156 14.72 23.3756 14.864 23.5356C15.024 23.6796 15.2 23.7916 15.392 23.8716C15.584 23.9516 15.792 23.9996 16 23.9996C16.208 23.9996 16.416 23.9516 16.608 23.8716C16.8 23.7916 16.976 23.6796 17.136 23.5356C17.28 23.3756 17.392 23.2156 17.472 23.0076C17.552 22.8156 17.6 22.6076 17.6 22.3996C17.6 22.1916 17.552 21.9836 17.472 21.7916Z" fill="#F1A75D"/>
</svg>
